<?xml version="1.0" standalone="no"?><!DOCTYPE svg PUBLIC "-//W3C//DTD SVG 1.1//EN" "http://www.w3.org/Graphics/SVG/1.1/DTD/svg11.dtd"><svg t="1710505083599" class="icon" viewBox="0 0 1024 1024" version="1.1" xmlns="http://www.w3.org/2000/svg" p-id="39881" xmlns:xlink="http://www.w3.org/1999/xlink" width="200" height="200"><path d="M732.208 129l28.244 6.982c115.903 28.71 190.872 76.206 198.845 135.961l0.703 11.615-0.02 449.123c0 102.761-201.122 174.63-447.979 174.63-238.915 0-434.978-67.286-447.378-164.781L64 732.68l0.023-451.984c1.434-60.313 69.784-108.919 179.704-139.487l19.824-5.206L291.795 129v260.17c64.998 14.638 140.84 22.541 220.206 22.541 68.01 0 133.413-5.822 191.686-16.704l28.52-5.86V129z m182.22 233.65c-23.15 18.414-54.487 34.618-92.535 48.247l-26.868 8.86-26.59 7.465-10.313 2.606c-71.944 17.821-157.045 27.438-246.12 27.438-78.817 0-154.54-7.53-220.7-21.58l-29.739-6.913-23.215-6.23-27.303-8.514c-35.095-11.883-64.862-25.86-88.24-41.67l-13.252-9.703v370.025c0 16.744 11.982 33.445 33.59 49.009l11.823 7.822 13.841 7.815 125.705-175.984a22.497 22.497 0 0 1 30.138-6.061l3.831 2.985 82.33 79.794a11.226 11.226 0 0 0 14.936 0.586l2.195-2.428 85.698-128.536a22.34 22.34 0 0 1 32.155-5.38l3.768 3.652 215.888 264.992c84.886-23.123 141.093-56.582 148.21-90.902l0.767-7.364V362.65z m-184.33 122.344c53.23-15.387 101.944 20.71 107.806 69.959l0.584 10.908a83.588 83.588 0 0 1-125.342 71.423c-36.506-21.105-53.21-67.445-33.161-109.744a80.804 80.804 0 0 1 50.112-42.546zM246.24 187.868c-86.731 25.797-136.686 62.281-136.686 94.769 0 30.983 45.42 65.559 124.786 91.086a9.16 9.16 0 0 0 11.434-5.856l0.466-2.81v-177.19z m531.476 0.045v172.451a12.506 12.506 0 0 0 16.3 11.922c76.65-25.348 120.386-59.25 120.386-89.65 0-30.3-43.516-64.122-119.815-89.434l-16.87-5.29z m-355.89-71.905c4.213 0.126 7.62 1.694 10.224 4.684a12.307 12.307 0 0 1 2.813 5.311l0.353 3.019-0.012 160.58a12.037 12.037 0 0 1-1.512 5.332l-1.642 2.274c-1.998 2.202-4.353 3.673-6.88 4.397l-3.897 0.522H313.147v-26.45h91.378v-51.392h-82.06v-26.426h82.06v-55.433H315.01V116l106.818 0.008z m276.62-0.002c5.246 0.102 8.991 1.536 11.197 4.26a17.175 17.175 0 0 1 3.156 7.153l0.279 3.938-0.013 158.245a12.057 12.057 0 0 1-1.527 5.334l-1.648 2.272c-2.005 2.202-4.365 3.674-6.897 4.397l-3.903 0.522-92.238-0.006c-7.074-0.148-11.332-3.596-12.752-10.334l-0.533-5.67 0.011-157.606c0.121-2.89 1.241-5.656 3.178-7.819a13.515 13.515 0 0 1 6.749-4.242l4.027-0.45 90.913 0.006z m-133.556 0a9.009 9.009 0 0 1 7.974 5.565l0.676 3.432v45.15h-30.736v-27.727h-58.06v51.167l79.784 0.01a9.43 9.43 0 0 1 8.667 6.973l0.323 2.447v86.057c-0.096 2.216-0.627 4.152-1.54 5.815l-1.648 2.29c-2.005 2.203-4.365 3.675-6.896 4.398l-3.903 0.522-94.507-0.012a11.474 11.474 0 0 1-10.601-8.486l-0.394-2.978 0.005-162.119a12.173 12.173 0 0 1 3.162-7.818 13.605 13.605 0 0 1 6.766-4.238l4.033-0.454 96.895 0.007z m117.496 26.42h-58.06v133.25h58.06v-133.25z m-139.582 77.593h-58.06v55.658h58.06v-55.658z" p-id="39882" fill="#727272"></path></svg>